<svg id="Capa_1" enable-background="new 0 0 509.998 509.998" height="512" viewBox="0 0 509.998 509.998" width="512" xmlns="http://www.w3.org/2000/svg"><g><path d="m160.759 264.233c1.252 2.773 3.982 4.416 6.84 4.416 1.031 0 2.08-.214 3.081-.666 3.775-1.704 5.455-6.146 3.75-9.922-4.179-9.259-9.377-18.088-15.45-26.24-2.473-3.322-7.173-4.008-10.495-1.535-3.322 2.474-4.009 7.173-1.535 10.494 5.428 7.287 10.074 15.178 13.809 23.453z"/><path d="m169.21 290.097c.521 2.475.975 4.999 1.346 7.503l3.056 20.589c.553 3.725 3.754 6.4 7.41 6.4.366 0 .737-.027 1.11-.082 4.097-.608 6.926-4.423 6.318-8.52l-3.056-20.59c-.416-2.802-.922-5.626-1.506-8.395-.854-4.054-4.833-6.644-8.886-5.792-4.053.855-6.646 4.833-5.792 8.887z"/><path d="m106.07 205.323c7.98 4.34 15.505 9.558 22.364 15.509 1.419 1.231 3.169 1.835 4.912 1.835 2.099 0 4.185-.876 5.668-2.585 2.714-3.129 2.379-7.865-.75-10.58-7.676-6.66-16.097-12.5-25.029-17.356-3.639-1.98-8.193-.632-10.171 3.006-1.979 3.639-.633 8.193 3.006 10.171z"/><path d="m339.318 267.981c1.001.452 2.049.666 3.08.666 2.858 0 5.589-1.643 6.841-4.417 3.734-8.272 8.38-16.162 13.808-23.449 2.475-3.322 1.787-8.021-1.534-10.495-3.323-2.475-8.021-1.788-10.495 1.534-6.074 8.154-11.271 16.982-15.45 26.24-1.705 3.776-.025 8.217 3.75 9.921z"/><path d="m376.652 222.667c1.742 0 3.493-.604 4.912-1.835 6.859-5.951 14.384-11.169 22.364-15.509 3.639-1.979 4.984-6.532 3.006-10.172-1.978-3.639-6.53-4.988-10.172-3.006-8.932 4.856-17.353 10.696-25.028 17.356-3.129 2.715-3.465 7.451-.75 10.58 1.484 1.711 3.57 2.586 5.668 2.586z"/><path d="m327.866 324.507c.373.056.743.082 1.11.082 3.654 0 6.856-2.676 7.409-6.4l3.056-20.587c.373-2.513.826-5.039 1.346-7.508.854-4.053-1.74-8.03-5.794-8.884-4.046-.856-8.031 1.739-8.884 5.794-.582 2.761-1.088 5.584-1.506 8.395l-3.056 20.589c-.607 4.096 2.221 7.91 6.319 8.519z"/><path d="m486.648 85.108c-4.058-.822-8.017 1.801-8.841 5.86l-1.785 8.803c-2.267 11.178-10.448 20.198-21.352 23.541-7.798 2.392-13.48 8.872-14.83 16.912l-5.988 35.637-10.022 4.183c-3.822 1.596-5.628 5.987-4.033 9.811 1.202 2.879 3.989 4.613 6.925 4.613.963 0 1.941-.187 2.886-.58l1.308-.546-7.318 43.557c-7.144 42.518-34.178 79.902-72.317 100.004l-19.172 10.105.03-.204c.607-4.097-2.221-7.911-6.318-8.52-4.089-.613-7.911 2.22-8.52 6.318l-1.644 11.077-15.121 7.97c-28.515 15.029-62.561 15.029-91.074 0l-15.121-7.97-1.644-11.077c-.608-4.099-4.426-6.923-8.52-6.318-4.097.608-6.926 4.423-6.318 8.52l.03.204-19.171-10.105c-38.139-20.102-65.174-57.486-72.317-100.004l-7.318-43.556 1.307.545c.944.394 1.923.58 2.886.58 2.936 0 5.723-1.735 6.924-4.613 1.595-3.822-.21-8.215-4.033-9.811l-10.021-4.182-5.988-35.637c-1.352-8.041-7.034-14.521-14.83-16.912-10.903-3.343-19.085-12.363-21.352-23.54l-12.71-62.68c-.968-4.774-.034-9.649 2.631-13.728 5.406-8.272 16.3-10.805 24.8-5.765l8.816 5.229c3.563 2.111 8.165.938 10.276-2.625 2.113-3.563.938-8.164-2.625-10.277l-8.816-5.229c-15.428-9.146-35.199-4.553-45.008 10.462-4.836 7.401-6.532 16.249-4.775 24.913l12.71 62.68c3.361 16.571 15.49 29.944 31.655 34.901 2.332.715 4.031 2.652 4.435 5.057l16.243 96.673c3.908 23.26 13.278 45.655 27.099 64.767 7.812 10.803 17.069 20.583 27.407 29.032l-2.788 55.373c-.208 4.137 2.977 7.659 7.114 7.867.128.007.256.01.383.01 3.969 0 7.282-3.114 7.484-7.123l2.297-45.62c3.616 2.315 7.324 4.482 11.119 6.482l50.744 26.747c16.447 8.669 34.489 13.003 52.531 13.003s36.085-4.334 52.531-13.003l50.744-26.747c4.135-2.18 8.167-4.56 12.088-7.113l4.434 88.071c.35 6.965 3.812 13.275 9.499 17.312l84.761 60.17c1.318.936 2.834 1.386 4.335 1.386 2.348 0 4.66-1.1 6.122-3.159 2.398-3.378 1.604-8.06-1.773-10.457l-84.761-60.17c-1.917-1.361-3.084-3.487-3.202-5.835l-4.934-97.996c9.95-8.266 18.88-17.765 26.449-28.231 13.82-19.111 23.19-41.507 27.099-64.766l16.243-96.676c.403-2.403 2.103-4.34 4.434-5.055 16.165-4.957 28.295-18.33 31.656-34.901l1.785-8.804c.824-4.058-1.8-8.016-5.86-8.84z"/><path d="m498.658 15.16c-9.811-15.015-29.581-19.611-45.009-10.462l-8.815 5.229c-3.563 2.113-4.738 6.714-2.626 10.276 2.113 3.564 6.717 4.737 10.276 2.626l8.816-5.229c8.501-5.042 19.395-2.509 24.801 5.765 2.664 4.078 3.599 8.953 2.631 13.728l-4.503 22.207c-.823 4.06 1.801 8.018 5.86 8.841.503.102 1.004.15 1.498.15 3.494 0 6.621-2.454 7.343-6.011l4.503-22.207c1.757-8.664.061-17.512-4.775-24.913z"/><path d="m129.587 413.364c-4.154-.228-7.66 2.976-7.868 7.113l-.499 9.899c-.118 2.348-1.285 4.474-3.202 5.835l-84.761 60.169c-3.378 2.398-4.172 7.08-1.774 10.458 1.462 2.06 3.774 3.159 6.122 3.159 1.501 0 3.018-.45 4.335-1.386l84.761-60.169c5.687-4.037 9.149-10.347 9.5-17.312l.499-9.899c.209-4.136-2.976-7.659-7.113-7.867z"/><path d="m231.601 170.137 1.234-.616c.974-.488 2.149-.358 2.996.329l6.189 5.032c3.76 3.056 8.369 4.584 12.979 4.584s9.219-1.528 12.979-4.585l6.188-5.031c.844-.688 2.021-.817 2.999-.328l1.227.613c9.251 4.626 20.414 2.857 27.782-4.403 8.769-8.642 9.649-22.462 2.048-32.146l-17.788-22.664c-1.688-2.151-2.619-4.844-2.619-7.58v-26.286c0-4.143-3.357-7.5-7.5-7.5s-7.5 3.357-7.5 7.5v26.285c0 6.079 2.067 12.061 5.82 16.842l17.788 22.664c2.885 3.676 2.551 8.921-.777 12.201-2.797 2.756-7.033 3.427-10.548 1.67l-1.227-.613c-6.233-3.119-13.759-2.291-19.168 2.106l-6.188 5.03c-2.039 1.658-4.998 1.657-7.035.001l-6.188-5.031c-5.409-4.398-12.933-5.224-19.164-2.108l-1.233.616c-3.51 1.758-7.747 1.084-10.543-1.671-3.329-3.28-3.663-8.525-.778-12.201l17.789-22.665c3.752-4.782 5.819-10.763 5.819-16.841v-26.285c0-4.143-3.358-7.5-7.5-7.5s-7.5 3.357-7.5 7.5v26.285c0 2.736-.93 5.429-2.619 7.58l-17.788 22.664c-7.602 9.684-6.721 23.504 2.049 32.147 7.367 7.259 18.531 9.026 27.777 4.405z"/><path d="m303.731 241.743c2.526 0 4.992-1.276 6.406-3.59 2.16-3.534 1.046-8.15-2.488-10.311l-26.928-16.456c-4.569-2.792-10.339-2.96-15.058-.44l-10.165 5.423-10.164-5.423c-4.722-2.52-10.492-2.351-15.058.44l-26.928 16.456c-3.535 2.16-4.649 6.775-2.489 10.311 2.16 3.534 6.775 4.649 10.31 2.488l26.928-16.456c.055-.031.122-.033.176-.005l10.256 5.472c4.363 2.327 9.573 2.329 13.938 0l10.259-5.473c.051-.029.119-.028.173.006l26.928 16.456c1.222.747 2.57 1.102 3.904 1.102z"/><path d="m275.659 248.238-6.921 4.568c-8.346 5.512-19.133 5.51-27.479 0l-6.919-4.568c-3.456-2.28-8.108-1.33-10.391 2.127-2.282 3.456-1.33 8.108 2.126 10.391l6.919 4.568c6.685 4.413 14.344 6.619 22.005 6.619 7.659 0 15.321-2.207 22.004-6.619l6.92-4.568c3.457-2.282 4.409-6.935 2.127-10.391-2.283-3.457-6.935-4.408-10.391-2.127z"/></g></svg>