<svg id="Layer_1" height="512" viewBox="0 0 512 512" width="512" xmlns="http://www.w3.org/2000/svg" data-name="Layer 1"><path d="m371.189 21h-230.378a5.776 5.776 0 0 0 -5.811 5.923v74.109a5.814 5.814 0 0 0 5.811 5.968h37.066a38.759 38.759 0 0 0 38.531 33h7.592v318.682a32 32 0 1 0 64 0v-318.682h7.592a38.759 38.759 0 0 0 38.531-33h37.066a5.814 5.814 0 0 0 5.811-5.968v-74.109a5.776 5.776 0 0 0 -5.811-5.923zm-135.189 165h40v46h-40zm20 293.077a20.085 20.085 0 0 1 -20-20.395v-214.682h40v214.682a20.085 20.085 0 0 1 -20 20.395zm20-305.077h-40v-34h40zm19.592-46h-79.184a27.045 27.045 0 0 1 -26.308-21h131.8a27.045 27.045 0 0 1 -26.308 21zm69.408-33h-218v-62h218z"/><path d="m167.543 60h177.963a6 6 0 0 0 0-12h-177.963a6 6 0 0 0 0 12z"/><path d="m167.543 80h177.963a6 6 0 0 0 0-12h-177.963a6 6 0 0 0 0 12z"/></svg>