<svg enable-background="new 0 0 512 512" height="512" viewBox="0 0 512 512" width="512" xmlns="http://www.w3.org/2000/svg"><g id="_x33_8_Razor_Blade"><g><g><path d="m489.633 159.328h-15.851l11.008-18.111c6.926-11.289-1.214-25.828-14.46-25.828h-428.605c-13.31 0-21.431 14.555-14.528 25.807l11.021 18.132h-15.848c-9.378 0-17.009 7.608-17.009 16.955v159.435c0 9.347 7.631 16.955 17.009 16.955h15.848l-11.011 18.116c-6.927 11.288 1.223 25.823 14.518 25.823h428.605c13.232 0 21.382-14.51 14.523-25.812l-11.05-18.126h15.83c9.378 0 17.007-7.608 17.007-16.955v-159.436c0-9.347-7.629-16.955-17.007-16.955zm6.342 176.389c0 3.468-2.843 6.29-6.342 6.29h-25.328c-4.144 0-6.724 4.549-4.551 8.108l15.991 26.224c2.527 4.178-.502 9.607-5.416 9.607h-428.604c-4.934 0-8.005-5.377-5.416-9.602l15.945-26.234c2.171-3.574-.429-8.102-4.556-8.102h-25.328c-3.499 0-6.345-2.822-6.345-6.29v-159.435c0-3.468 2.846-6.29 6.345-6.29h25.328c4.132 0 6.724-4.534 4.556-8.102l-15.955-26.25c-2.568-4.193.478-9.587 5.426-9.587h428.605c4.871 0 7.955 5.369 5.358 9.602l-15.939 26.234c-2.16 3.555.414 8.102 4.556 8.102h25.328c3.499 0 6.342 2.822 6.342 6.29z"/><path d="m440.3 224.705c-10.456 0-20.095 5.202-25.864 13.763h-21.313c-2.729 0-5.238-1.38-6.707-3.682-11.659-18.355-38.526-18.465-50.302.005-1.468 2.302-3.973 3.676-6.697 3.676h-21.829c-7.373-22.094-28.114-37.185-51.812-37.185-23.669 0-44.425 15.096-51.851 37.185h-16.234c-2.729 0-5.236-1.38-6.704-3.682-11.657-18.353-38.523-18.471-50.304.01-1.466 2.296-3.968 3.671-6.694 3.671h-15.705c-5.803-8.566-15.432-13.763-25.83-13.763-19.425 0-34.38 17.534-30.832 37.039 2.273 12.534 12.198 22.584 24.685 25.01 12.399 2.438 24.955-2.709 32.019-13.221h15.663c2.768 0 5.218 1.354 6.725 3.718 11.728 18.374 38.564 18.358 50.273-.031 1.468-2.307 3.976-3.687 6.704-3.687h16.249c7.446 21.808 28.606 37.242 51.835 37.242 23.703 0 44.444-15.117 51.817-37.242h21.823c2.765 0 5.218 1.354 6.723 3.708 11.739 18.43 38.603 18.329 50.276-.021 1.468-2.307 3.978-3.687 6.707-3.687h21.303c7.069 10.524 19.631 15.653 31.962 13.232 12.461-2.401 22.375-12.419 24.667-24.937 3.545-19.376-11.123-37.121-30.753-37.121zm20.266 35.2c-1.51 8.227-8.019 14.815-16.21 16.392-8.738 1.713-17.97-2.604-22.204-10.592-.927-1.744-2.739-2.838-4.713-2.838h-24.318c-6.394 0-12.268 3.223-15.705 8.623-7.494 11.793-24.756 11.848-32.285.01-3.458-5.405-9.331-8.634-15.715-8.634h-25.823c-2.447 0-4.577 1.666-5.171 4.041-4.89 19.548-22.428 33.201-42.647 33.201-19.829 0-37.786-13.976-42.699-33.227-.601-2.364-2.729-4.015-5.166-4.015h-20.22c-6.394 0-12.266 3.223-15.702 8.623-7.533 11.835-24.77 11.8-32.285.026-3.45-5.416-9.326-8.649-15.715-8.649h-18.678c-1.974 0-3.786 1.088-4.71 2.833-4.244 8.009-13.487 12.279-22.253 10.586-8.214-1.593-14.739-8.207-16.234-16.45-2.359-12.974 7.575-24.469 20.339-24.469 7.558 0 14.507 4.197 18.137 10.951.929 1.734 2.734 2.812 4.697 2.812h18.702c6.387 0 12.253-3.218 15.687-8.602 7.595-11.913 24.846-11.782 32.313-.021 3.437 5.4 9.308 8.623 15.702 8.623h20.22c2.44 0 4.569-1.656 5.168-4.025 4.947-19.522 22.503-33.16 42.697-33.16 20.214 0 37.752 13.633 42.647 33.149.594 2.374 2.723 4.036 5.171 4.036h25.823c6.384 0 12.247-3.218 15.684-8.602 7.601-11.913 24.843-11.781 32.316-.021 3.437 5.4 9.311 8.623 15.705 8.623h24.323c1.974 0 3.786-1.088 4.707-2.833 3.583-6.743 10.534-10.93 18.147-10.93 12.762.003 22.648 11.519 20.268 24.539z"/></g></g></g></svg>